<svg xmlns="http://www.w3.org/2000/svg" viewBox="0 0 512 512" role="img" aria-labelledby="title desc">
  <title id="title">Gems Marketplace logo mark</title>
  <desc id="desc">A faceted gemstone monogram in emerald, sapphire, ruby, and gold.</desc>
  <defs>
    <linearGradient id="plate" x1="80" y1="54" x2="432" y2="458" gradientUnits="userSpaceOnUse">
      <stop offset="0" stop-color="#003d36"/>
      <stop offset="0.48" stop-color="#071317"/>
      <stop offset="1" stop-color="#001f22"/>
    </linearGradient>
    <linearGradient id="emerald" x1="128" y1="126" x2="350" y2="384" gradientUnits="userSpaceOnUse">
      <stop offset="0" stop-color="#6ee7b7"/>
      <stop offset="0.5" stop-color="#00f5a0"/>
      <stop offset="1" stop-color="#08715c"/>
    </linearGradient>
    <linearGradient id="sapphire" x1="156" y1="124" x2="354" y2="348" gradientUnits="userSpaceOnUse">
      <stop offset="0" stop-color="#8bd8ff"/>
      <stop offset="0.56" stop-color="#00a8d6"/>
      <stop offset="1" stop-color="#075985"/>
    </linearGradient>
    <linearGradient id="ruby" x1="318" y1="138" x2="390" y2="326" gradientUnits="userSpaceOnUse">
      <stop offset="0" stop-color="#ff9bb2"/>
      <stop offset="0.55" stop-color="#e11d48"/>
      <stop offset="1" stop-color="#7f1d1d"/>
    </linearGradient>
    <linearGradient id="gold" x1="174" y1="104" x2="338" y2="186" gradientUnits="userSpaceOnUse">
      <stop offset="0" stop-color="#ffe9a3"/>
      <stop offset="0.58" stop-color="#d4a94e"/>
      <stop offset="1" stop-color="#9a6a16"/>
    </linearGradient>
    <filter id="shadow" x="-20%" y="-20%" width="140%" height="140%">
      <feDropShadow dx="0" dy="20" stdDeviation="20" flood-color="#000000" flood-opacity="0.38"/>
    </filter>
  </defs>
  <rect width="512" height="512" rx="112" fill="url(#plate)"/>
  <circle cx="386" cy="126" r="54" fill="#00f5a0" opacity="0.12"/>
  <circle cx="124" cy="382" r="72" fill="#00a8d6" opacity="0.1"/>
  <g filter="url(#shadow)">
    <path d="M104 180 178 110h156l74 70-152 210L104 180Z" fill="#e8fff8"/>
    <path d="M104 180h304L256 390 104 180Z" fill="url(#emerald)"/>
    <path d="M178 110 104 180h96l56-70h-78Z" fill="url(#gold)"/>
    <path d="M256 110h78l74 70h-96l-56-70Z" fill="url(#ruby)"/>
    <path d="M200 180h112l-56 210-56-210Z" fill="url(#sapphire)"/>
    <path d="M104 180h96l56 210-152-210Z" fill="#0fa889"/>
    <path d="M312 180h96L256 390l56-210Z" fill="#075985"/>
    <path d="M200 180 256 110l56 70H200Z" fill="#f8fbff"/>
    <path d="M104 180 178 110h156l74 70M104 180h304L256 390 104 180Zm96 0 56-70 56 70-56 210-56-210Z" fill="none" stroke="#ffffff" stroke-opacity="0.42" stroke-width="10" stroke-linejoin="round"/>
    <path d="M154 184h204" stroke="#ffffff" stroke-opacity="0.55" stroke-width="10" stroke-linecap="round"/>
  </g>
</svg>
